<svg id="SvgjsSvg1001" width="288" height="288" xmlns="http://www.w3.org/2000/svg" version="1.1" xmlns:xlink="http://www.w3.org/1999/xlink" xmlns:svgjs="http://svgjs.com/svgjs"><defs id="SvgjsDefs1002"></defs><g id="SvgjsG1008" transform="matrix(1,0,0,1,0,0)"><svg xmlns="http://www.w3.org/2000/svg" xmlns:xlink="http://www.w3.org/1999/xlink" viewBox="0 0 213 65" width="288" height="288"><defs><polygon id="a" points=".317 .363 8.787 .363 8.787 21.816 .317 21.816" fill="#ffffff" class="color000 svgShape"></polygon><polygon id="c" points=".341 .203 10.707 .203 10.707 15.806 .341 15.806" fill="#ffffff" class="color000 svgShape"></polygon><polygon id="e" points="0 65 213 65 213 1 0 1" fill="#ffffff" class="color000 svgShape"></polygon></defs><g fill="none" fill-rule="evenodd"><path fill="#05bfe0" d="M22.4927602,49.0021293 C22.490205,44.8606592 25.8460621,41.5014905 29.9876498,41.4989354 L30,41.4989354 L30,34 L0,34 L0,41.4989354 C4.14158764,41.4989354 7.49872239,44.8564006 7.49872239,48.9978707 L7.49872239,49.0021293 C7.49872239,53.1435994 4.14158764,56.5006388 0,56.5006388 L0,64 L30,64 L30,56.5006388 C25.8584124,56.5057491 22.4974448,53.1521165 22.4927602,49.0106465 L22.4927602,49.0021293 Z" class="color05BFE0 svgShape"></path><path fill="#ff610f" d="M47.0002129,16.9957419 C46.9976581,8.71289068 40.2827337,2 32,2 L32,32 C40.2827337,32 46.9976581,25.2871093 47.0002129,17.0042581 C47.0023419,25.2871093 53.7172663,32 62,32 L62,2 C53.7172663,2 47.0023419,8.71289068 47.0002129,16.9957419" class="colorFF610F svgShape"></path><path fill="#ffffff" d="M19.6742079,17.0002129 L5.63925868,17.0002129 L5.63925868,7.63849265 L19.6742079,7.63849265 C22.2578574,7.63849265 24.3525243,9.73429849 24.3525243,12.3193528 C24.3525243,14.9044071 22.2578574,17.0002129 19.6742079,17.0002129 L19.6742079,17.0002129 Z M20.6100414,2.04683841 C20.2993736,2.01745795 19.9887058,2 19.6742079,2 L0,2 L0,32 L5.61798006,32 L5.61798006,22.6382798 L19.6742079,22.6382798 C19.9887058,22.6382798 20.2993736,22.6382798 20.6100414,22.5914413 C26.2765367,22.0881414 30.4620404,17.0832446 29.9590139,11.4136683 C29.5172698,6.44198425 25.5790237,2.50117096 20.6100414,2.05961252 L20.6100414,2.04683841 Z" class="color231F20 svgShape"></path><polygon fill="#4f17a8" points="32 64 32 55 41 64" class="color4F17A8 svgShape"></polygon><polygon fill="#4f17a8" points="49.621 64 33 47.376 33 39 58 64" class="color4F17A8 svgShape"></polygon><polygon fill="#4f17a8" points="63 34 63 43 54 34" class="color4F17A8 svgShape"></polygon><polygon fill="#4f17a8" points="62 59 37 34 45.405 34 62 50.593" class="color4F17A8 svgShape"></polygon><path fill="#ffffff" d="M65.7159458 62L66.146331 62 66.8642135 63.6152202 67.5696148 62 68 62 68 64 67.6858188 64 67.6858188 62.4360838 66.9976329 64 66.7010975 64 66.0172154 62.4360838 66.0172154 64 65.6987304 64 65.7159458 62zM64.597805 62.2821719L64 62.2821719 64 62 65.5097913 62 65.5097913 62.2821719 64.9158597 62.2821719 64.9158597 63.9910218 64.597805 63.9910218 64.597805 62.2821719zM84.4967627 8.73382984C85.0114248 8.74182163 85.5218545 8.63393253 85.9941924 8.41904229 86.4102392 8.22723944 86.7695715 7.92266361 87.0349442 7.53594999 87.2816942 7.17232375 87.4120527 6.73543948 87.4069738 6.28923145 87.4154386 5.83503164 87.288466 5.38971159 87.043409 5.01542964 86.7818455 4.63448786 86.4267456 4.33523989 86.0153545 4.15054085 85.5362447 3.93343068 85.0186199 3.82598556 84.4967627 3.83530931L81.5611571 3.83530931 81.5611571 8.71607032 84.4967627 8.73382984zM78.0042324 1.0000007L85.0931105 1.0000007C86.0695295.999557415 87.0357906 1.20956378 87.9313704 1.61670085 88.8104438 2.00474644 89.5765116 2.62899368 90.1521205 3.42728426 90.7315386 4.26153787 91.0290777 5.27471868 90.9977578 6.30699098 91.0091853 7.26866917 90.7438126 8.21214385 90.2367689 9.01309835 89.710256 9.83403232 88.9784708 10.4866948 88.1218293 10.8991597 87.1598005 11.3697871 86.1080445 11.6046568 85.0465539 11.5868973L81.5573479 11.5868973 81.5573479 17.0000007 78 17.0000007 78.0042324 1.0000007zM93 5.33393461L95.6184012 5.33393461 96.1221719 7.04493383C96.3811679 6.424249 96.8319328 5.89329182 97.4141349 5.52326817 97.9941823 5.1709431 98.6694678 4.98942983 99.3563887 5.00054289 99.9834087 4.98942983 100.600517 5.14912858 101.135316 5.46152897 101.664081 5.78257284 102.09847 6.22709513 102.397113 6.75311318 102.736695 7.34457478 102.942254 7.99777559 103 8.66990976L100.22646 9.3980208C100.216979 8.87035638 100.009265 8.36368329 99.6408102 7.97061034 99.3167421 7.61087656 98.8457229 7.40260963 98.3488472 7.39890528 97.9631545 7.39520093 97.5882353 7.52032572 97.2895928 7.75246514 96.9569058 8.01300459 96.7039431 8.35380502 96.556992 8.73988086 96.3790131 9.1959278 96.291532 9.68037478 96.298858 10.1672913L96.298858 16 93.0043094 16 93 5.33393461zM111.492015 13.0368138C111.922989 12.7911465 112.273182 12.4344297 112.503451 12.0070087 112.748295 11.5404407 112.871133 11.0239403 112.86114 10.5018475 112.871133 9.97855632 112.748295 9.46085757 112.503451 8.99269172 112.271516 8.56567014 111.92174 8.20775495 111.492015 7.95889205 111.051046 7.70923022 110.547202 7.57940608 110.035445 7.58380013 109.523273 7.57780824 109.019428 7.70763239 108.579293 7.95889205 108.153315 8.20735549 107.807702 8.56367284 107.580348 8.98909659 107.332589 9.45606406 107.208086 9.97416227 107.218079 10.4978529 107.207669 11.0207446 107.332173 11.5376445 107.580348 12.0030141 107.805204 12.4296362 108.152066 12.7867525 108.579293 13.0328192 109.020677 13.2872745 109.528686 13.4174981 110.043773 13.4083106 110.553031 13.413903 111.053545 13.2856767 111.492015 13.0368138L111.492015 13.0368138zM106.914523 15.3121317C106.031754 14.8759226 105.296807 14.2072284 104.796294 13.384343 104.26455 12.5103269 103.989309 11.5140764 104.001385 10.5018475 103.978483 9.49321374 104.239982 8.49736266 104.758818 7.61975143 105.269325 6.79047472 106.017596 6.1197832 106.914523 5.68756866 108.885347 4.77081045 111.185544 4.77081045 113.156368 5.68756866 114.026645 6.12976968 114.748267 6.79966228 115.237121 7.61975143 115.757622 8.4969632 116.020787 9.49281428 115.998718 10.5018475 116.020787 11.5108807 115.757622 12.5071312 115.237121 13.384343 114.737857 14.2080273 114.002493 14.877121 113.118891 15.3121317 111.148068 16.2292894 108.847871 16.2292894 106.877047 15.3121317L106.914523 15.3121317z" class="color000 svgShape"></path><g transform="translate(112)" fill="#ffffff" class="color000 svgShape"><mask id="b" fill="#fff"><use xlink:href="#a"></use></mask><path fill="#ffffff" d="M5.4444,3.60004615 C5.07325714,3.24381538 4.87268571,2.74923846 4.89197143,2.23858462 C4.86754286,1.73131538 5.06382857,1.23758462 5.43154286,0.881353846 C6.23725714,0.190046154 7.43554286,0.190046154 8.24082857,0.881353846 C8.60468571,1.23335385 8.80225714,1.71946923 8.78511429,2.22166154 C8.80568571,2.73062308 8.60811429,3.22477692 8.24082857,3.58312308 C7.43554286,4.27443077 6.23725714,4.27443077 5.43154286,3.58312308 L5.4444,3.60004615 Z M1.85511429,21.3578538 C1.23968571,21.0900462 0.708685714,20.6635846 0.3174,20.1233154 L1.76982857,18.2418923 C1.94597143,18.5892385 2.21554286,18.8815846 2.54897143,19.0872 C2.8614,19.2805462 3.2214,19.3846231 3.58997143,19.3875846 C4.20325714,19.4015462 4.76297143,19.0444692 5.0034,18.4868538 C5.13582857,18.1830846 5.20182857,17.8543538 5.19582857,17.5230846 L5.19582857,5.58300769 L8.45125714,5.58300769 L8.45125714,18.0049692 C8.4804,19.4252385 7.65968571,20.7295846 6.35682857,21.3324692 C5.64968571,21.6645846 4.87397143,21.8295846 4.09097143,21.8147769 C3.32082857,21.8257769 2.55754286,21.6696615 1.85511429,21.3578538 L1.85511429,21.3578538 Z" mask="url(#b)" class="color000 svgShape"></path></g><path fill="#ffffff" d="M126.761378 7.56107089C126.390828 7.74622512 126.08175 8.02236031 125.867673 8.35875044 125.628664 8.72586658 125.467032 9.13208858 125.390945 9.55507023L130.438507 9.55507023C130.391221 9.1352809 130.254092 8.72826082 130.034427 8.35875044 129.61831 7.66921054 128.828635 7.24622889 127.977057 7.25820007 127.550624 7.26099335 127.131928 7.3651426 126.761378 7.56107089M131.057093 5.72269688C131.912539 6.16563049 132.609363 6.83282419 133.059009 7.64087875 133.545625 8.52514982 133.789363 9.50718552 133.767869 10.5L133.767869 10.974852C133.76357 11.1081312 133.752393 11.2410112 133.733909 11.3734923L125.390945 11.3734923C125.453706 11.8399692 125.656176 12.2805086 125.975142 12.6456295 126.304854 13.0147409 126.728708 13.3028473 127.208016 13.482814 127.728161 13.6819346 128.286566 13.7808963 128.848839 13.7741127 129.507403 13.7741127 130.15737 13.6380403 130.751884 13.3754724 131.27117 13.1707653 131.717377 12.8351732 132.040641 12.406206L134 13.6982952C133.512095 14.4532775 132.770995 15.0386682 131.890616 15.3654814 130.836139 15.798439 129.692678 16.0147183 128.53976 15.9991557 127.377385 16.0163144 126.227047 15.7717034 125.188905 15.2852745 124.232009 14.8295716 123.426858 14.1404307 122.860716 13.2916742 122.283397 12.4293502 121.985066 11.431353 122.001401 10.416197 121.978188 9.42937285 122.243849 8.45491891 122.770443 7.59698443 123.281991 6.78813179 124.02567 6.12692368 124.918085 5.68678334 125.872402 5.21990737 126.937196 4.98407515 128.015746 5.0008348 129.08011 4.99045978 130.128569 5.2394603 131.057093 5.72269688M137.979356 15.3107899C137.066902 14.8611177 136.308803 14.1800142 135.79186 13.3454226 135.259951 12.4824517 134.9863 11.5015667 135.000838 10.5054928 134.983307 9.51061799 135.241138 8.52813418 135.748674 7.65317199 136.22457 6.83496842 136.936918 6.15826171 137.804476 5.70019562 138.717358 5.22254381 139.749535 4.9815195 140.795395 5.00110523 141.634733 4.99630872 142.465948 5.15139567 143.239439 5.45637336 143.97402 5.7409659 144.632065 6.17345064 145.166967 6.7226503 145.677497 7.24706802 146.028539 7.8897995 146.183323 8.58409339L143.192405 9.29117796C143.073965 8.783548 142.772094 8.32947899 142.337674 8.00491558 141.920356 7.68394955 141.395716 7.50847746 140.855256 7.50967659 140.384063 7.50328125 139.922277 7.63438568 139.53489 7.88500299 139.12869 8.15240807 138.810143 8.52053972 138.616022 8.94782824 138.383419 9.43787102 138.2684 9.9694835 138.278234 10.5054928 138.269683 11.0458988 138.399667 11.5803093 138.65878 12.0631573 138.889245 12.4992394 139.244136 12.8669714 139.684116 13.1259826 140.534144 13.5916431 141.57872 13.6216213 142.457824 13.2055246 142.853334 13.0148636 143.197108 12.7418626 143.46178 12.4069067 143.730728 12.0671544 143.90518 11.6706434 143.970172 11.2525482L147 11.6518571C146.891395 12.4720592 146.543773 13.2486931 145.995616 13.8966208 145.432921 14.5609365 144.709029 15.0905505 143.885084 15.4426938 141.99732 16.2321183 139.82992 16.1805559 137.988336 15.3027958L137.979356 15.3107899zM151.274702 16.515597C150.629455 16.2095656 150.097183 15.725825 149.748437 15.1276919 149.386742 14.4679304 149.208574 13.7317666 149.2309 12.9892711L149.2309 8.15481913 147 8.15481913 147 5.71669861 149.2309 5.71669861 149.2309 2.70450539 152.640659 2 152.61342 5.71669861 157.316798 5.71669861 157.316798 8.15481913 152.61342 8.15481913 152.636194 12.4911786C152.610295 13.0010902 152.78891 13.5008711 153.135869 13.8917471 153.464967 14.2366128 153.93919 14.4248749 154.429488 14.406302 154.926037 14.4130558 155.410977 14.2644722 155.808841 13.9846118 156.229926 13.6794246 156.569294 13.2851718 156.799261 12.8330895L158 14.7355495C157.588739 15.4311906 156.991719 16.0128613 156.268775 16.4227323 155.490907 16.823739 154.614354 17.0221318 153.729317 16.996805 152.882236 17.0255087 152.040067 16.8604628 151.274702 16.515597" class="color000 svgShape"></path><polygon fill="#ffffff" points="78 25 80.699 25 86.5 38.064 92.301 25 95 25 95 40 93.136 40 93.136 27.554 87.485 40 85.51 40 79.864 27.575 79.864 40 78 40" class="color000 svgShape"></polygon><path fill="#ffffff" d="M103.321695 38.1522577C103.870216 37.8795271 104.332237 37.4670469 104.657333 36.9586133 104.987347 36.4398279 105.159119 35.841015 105.15297 35.2318502L105.15297 34.4996581 101.916365 34.8974069C100.724212 35.0447212 99.8678128 35.2951556 99.3639765 35.6415434 98.908925 35.9047185 98.6211356 36.3729392 98.5977681 36.8869469 98.6039175 37.404936 98.9031856 37.8775363 99.3762752 38.1164245 99.9932595 38.4504697 100.694285 38.6117192 101.40023 38.5818582 102.066819 38.5926082 102.726848 38.4448957 103.321695 38.1522577M98.9831271 39.6042994C98.4046787 39.3773557 97.9012523 39.0003106 97.528602 38.5141732 97.1789093 38.0535173 96.993609 37.4949172 97.0001683 36.9227801 96.994019 36.3789114 97.1645608 35.8469872 97.4876064 35.4030534 97.885264 34.897805 98.4079584 34.4996581 99.0077245 34.2452422 99.8674029 33.8817341 100.781605 33.6559848 101.715896 33.5763555L104.288372 33.274162C104.522867 33.2618194 104.746703 33.1734308 104.923394 33.0233294 105.078768 32.8875613 105.165678 32.6928675 105.161169 32.4902107 105.169778 32.0872861 105.023834 31.6959077 104.751213 31.3921216 104.445795 31.0616597 104.062076 30.8092346 103.632852 30.655948 103.144594 30.4771801 102.626409 30.3879952 102.104945 30.3931711 101.513787 30.38481 100.92837 30.5058466 100.392147 30.7475218 99.9243868 30.95416 99.5132006 31.2651128 99.1917949 31.6545004 98.9122046 31.975805 98.7420728 32.3735537 98.7043568 32.7924042L97.2703295 32.2075265C97.3576502 31.6226487 97.6212522 31.0755948 98.0283388 30.6360407 98.5022483 30.108496 99.0991447 29.699201 99.7694233 29.4423963 100.530302 29.1421935 101.345295 28.991694 102.166438 29.0008514 102.980611 28.9869162 103.788635 29.1441843 104.534346 29.4623036 105.189046 29.7433953 105.749456 30.1968847 106.152443 30.7714106 106.543952 31.3523069 106.74688 32.0343326 106.734581 32.7290989L106.734581 37.9014252C106.721463 38.082582 106.777217 38.2621462 106.889955 38.4070717 106.989164 38.5269139 107.140848 38.594997 107.299501 38.5902193 107.460204 38.5818582 107.613528 38.5249232 107.737744 38.4265809 107.901727 38.3055442 108.040702 38.155841 108.147701 37.985036L109 38.9521348C108.768375 39.283393 108.448199 39.5477625 108.074319 39.7161787 107.704128 39.8981318 107.296222 39.9948815 106.882166 39.9984648 105.959764 40.0370851 105.179617 39.3423188 105.139851 38.4464882 105.137391 38.3935347 105.137801 38.3405812 105.140671 38.2876276L105.140671 37.8894807C104.892238 38.3170905 104.564273 38.6961263 104.173994 39.0074772 103.765678 39.3343558 103.297098 39.5812069 102.792851 39.736086 102.24392 39.9064929 101.669981 39.9912982 101.092762 39.9861223 100.370009 39.9996593 99.6521758 39.8694652 98.9831271 39.6042994M110 29.4185511L111.508553 29.4185511 111.659495 30.969923C112.039436 30.3535962 112.591882 29.8519253 113.2543 29.5220311 113.924912 29.1776497 114.674445 28.9984224 115.43519 29.0009059 116.275719 28.9843491 117.105035 29.1950344 117.826536 29.6089543 118.510948 30.0067313 119.065981 30.5800104 119.429966 31.2638061 119.818533 32.0076202 120.013894 32.8309069 119.999232 33.6624721L119.999232 39.9913077 118.318174 39.9913077 118.318174 33.6711644C118.32723 33.099541 118.200439 32.5337124 117.94772 32.0163125 117.714408 31.5444438 117.34266 31.1479085 116.878623 30.8747214 116.383534 30.5932558 115.815994 30.4500396 115.240691 30.4612154 113.272413 30.4516952 111.668982 31.9757484 111.659495 33.8652928L111.659495 33.9195163 111.659495 40 110 40 110 29.4185511zM128.315254 38.1493464C128.864425 37.8758949 129.327533 37.4635285 129.654987 36.9560312 129.977113 36.4365929 130.141454 35.8395373 130.129979 35.2337249L130.129979 34.4977543 126.893964 34.8953933C125.706688 35.0410749 124.856292 35.289052 124.342775 35.6393246 123.887045 35.9020291 123.599344 36.3701207 123.576394 36.8843846 123.580902 37.4026288 123.880897 37.8758949 124.35507 38.113523 124.971864 38.4474761 125.672672 38.6086811 126.377989 38.5788284 127.050519 38.5923616 127.715673 38.4446899 128.315254 38.1493464M123.982125 39.6009875C123.403036 39.3760966 122.899355 38.9987575 122.52846 38.5111621 122.178875 38.0506332 121.993222 37.4921872 122.000189 36.9202079 121.994042 36.3764893 122.164531 35.8447118 122.487067 35.4009004 122.88747 34.891811 123.41656 34.4929779 124.023108 34.2434086 124.882521 33.8796028 125.796441 33.6539157 126.730442 33.5747064L129.302533 33.2725962C129.536136 33.2606551 129.758264 33.1722909 129.933261 33.0218329 130.085308 32.8920728 130.173421 32.7053934 130.17465 32.5087631 130.184077 32.1059496 130.037767 31.7146791 129.765231 31.4109769 129.458268 31.0806061 129.073438 30.8278526 128.643117 30.6750063 128.156649 30.4958897 127.639854 30.4067293 127.119371 30.4126999 126.528806 30.4035451 125.94357 30.5245483 125.407513 30.7665549 124.938667 30.9675636 124.52351 31.2708678 124.195237 31.6533814 123.919011 31.9765875 123.748932 32.3730325 123.707949 32.7909714L122.278463 32.2062549C122.363708 31.6211404 122.627638 31.0738395 123.036238 30.6352026 123.509592 30.1078035 124.106304 29.6986214 124.776785 29.4418875 125.537019 29.1405734 126.35176 28.9905135 127.172649 29.0004644 127.980423 28.9909115 128.78041 29.1497283 129.519333 29.4657697 130.180798 29.7447937 130.748412 30.1981579 131.157832 30.7745156 131.549219 31.3556497 131.752085 32.0374872 131.73938 32.7316639L131.73938 37.9025634C131.727495 38.0832722 131.781183 38.2619909 131.891017 38.4076724 131.991425 38.5266855 132.142242 38.5939538 132.300846 38.5907695 132.46068 38.5824107 132.613956 38.5250934 132.738954 38.4275743 132.902066 38.306571 133.040999 38.1569091 133.148374 37.9861512L134 38.9529832C133.766807 39.2825579 133.44714 39.5460584 133.074605 39.7168163 132.704938 39.8987193 132.297158 39.9954423 131.88282 39.9986266 130.955786 40.035246 130.17465 39.3350988 130.137356 38.435137 130.135307 38.3861784 130.135307 38.3376179 130.137766 38.2886593L130.137766 37.8910203C129.892688 38.3189102 129.566054 38.6982395 129.175486 39.0083104 128.767296 39.3343027 128.29886 39.5810857 127.79518 39.7363202 127.246008 39.9070781 126.672247 39.9914619 126.095616 39.9870835 125.371448 39.9990246 124.652197 39.8680704 123.982125 39.6009875M142.498082 38.7256658C143.101805 38.35437 143.593385 37.8169911 143.917591 37.1743972 144.262455 36.4861521 144.434887 35.7200828 144.419288 34.9457527 144.429828 34.147945 144.253602 33.3592675 143.905365 32.6471099 143.585796 31.9888642 143.093795 31.436703 142.485434 31.052364 141.879181 30.6706337 141.181442 30.4719426 140.471055 30.4788989 139.008544 30.4541169 137.662392 31.2993148 137.012293 32.6514577 136.665743 33.3623109 136.490781 34.1496841 136.502585 34.9457527 136.489938 35.7209523 136.669958 36.4865869 137.024941 37.1700494 137.353363 37.8104695 137.844099 38.3465441 138.444872 38.7208833 139.694478 39.4682575 141.235828 39.4682575 142.485434 38.7208833L142.498082 38.7256658zM137.44232 45.5602913C136.669958 45.2916018 135.954512 44.872481 135.335612 44.3264066 134.766459 43.8255486 134.310715 43.2029542 134 42.501666L135.364702 41.532123C135.54135 42.1138488 135.857124 42.6399237 136.283356 43.0620879 136.743737 43.5212077 137.291389 43.8768517 137.893004 44.1046726 138.551113 44.3607537 139.249696 44.4890116 139.953337 44.48249 140.756475 44.4985766 141.549916 44.3011898 142.257773 43.9090249 142.909558 43.545555 143.447091 42.9986111 143.807976 42.3316699 144.181087 41.6338598 144.369962 40.8473562 144.356049 40.0508528L144.356049 38.5604522C143.913375 39.2543493 143.311338 39.8243362 142.603481 40.2204141 141.881711 40.6177962 141.074357 40.8195307 140.256464 40.8064875 139.28511 40.8199655 138.328512 40.5569281 137.492489 40.046505 136.679234 39.5434731 136.015222 38.820881 135.571283 37.9561183 135.101627 37.0278788 134.864269 35.9926852 134.880711 34.9457527 134.868063 33.8888205 135.105421 32.8453663 135.571283 31.9040835 136.465907 30.0919513 138.285087 28.9645859 140.256885 29.0015416 141.911222 28.9589339 143.470279 29.801958 144.377129 31.2306208L144.545345 29.3837067 145.999425 29.3837067 145.999425 40.0552005C146.014181 41.1330018 145.744782 42.1947165 145.219896 43.126869 144.716091 44.0242396 143.977457 44.755962 143.087471 45.2385596 142.134246 45.7572433 141.068876 46.0185416 139.991281 45.9989769 139.123639 46.0011507 138.2619 45.853328 137.44232 45.5602913L137.44232 45.5602913zM151.627166 30.8187283C151.095158 31.0868057 150.645544 31.4825391 150.323076 31.9668337 149.97886 32.4814467 149.754681 33.0610843 149.666849 33.6650564L156.951851 33.6650564C156.880749 33.0630789 156.678319 32.4822445 156.358779 31.9588552 156.064752 31.4797466 155.640233 31.085609 155.129555 30.8187283 154.604239 30.5458638 154.013676 30.4086337 153.416003 30.4202025 152.794072 30.4078358 152.178832 30.5450659 151.627166 30.8187283M156.174751 29.6865799C156.963562 30.152125 157.598041 30.8211219 158.005412 31.6161789 158.454189 32.4838402 158.685898 33.439265 158.682552 34.4070564L158.682552 34.7018618C158.681297 34.8059812 158.674605 34.9093027 158.661639 35.0126242L149.662667 35.0126242C149.718712 35.6856102 149.951256 36.3342619 150.339806 36.8987404 150.718319 37.4384856 151.236525 37.8769039 151.844654 38.1701136 153.211481 38.8071964 154.817544 38.7728889 156.153839 38.0787598 156.773679 37.7636093 157.279338 37.2769211 157.604314 36.683321L159 37.229449C158.599739 38.0771641 157.92009 38.7768781 157.064778 39.222876 155.138338 40.2373416 152.805782 40.2600803 150.858013 39.2823158 149.980115 38.8167706 149.25655 38.1262319 148.768039 37.2892877 147.768014 35.5264393 147.743338 33.4077499 148.70112 31.6241574 149.150734 30.8211219 149.824946 30.1533218 150.64889 29.6945584 151.505457 29.2258218 152.478714 28.9864669 153.465774 29.0008282 154.418538 28.9840734 155.356662 29.2218325 156.174751 29.6865799M160 29.4325128L161.437085 29.4325128 161.613599 30.7503484C161.941658 30.2108957 162.415663 29.7669322 162.986106 29.4655827 163.568172 29.1621664 164.221275 29.0071512 164.883419 29.0154187 165.719925 28.9992971 166.544807 29.2051573 167.267224 29.6102636 167.937548 29.9839535 168.467952 30.5523424 168.781372 31.2335824 169.126652 30.5692907 169.659208 30.0112361 170.317477 29.6226648 172.335768 28.418507 174.988649 29.0137652 176.242762 30.9516615 176.310784 31.0566584 176.37321 31.164549 176.431331 31.2753331 176.818801 32.0181658 177.014259 32.8403662 176.99919 33.6708341L176.99919 39.9913192 175.321443 39.9913192 175.321443 33.6588463C175.331776 33.0879771 175.204772 32.5224818 174.951624 32.006178 174.722586 31.5411325 174.36353 31.1463605 173.914064 30.8660931 173.462877 30.5891327 172.935917 30.445692 172.399916 30.4531327 171.837223 30.448999 171.284431 30.5920263 170.799232 30.8660931 170.323935 31.1364395 169.941631 31.5341051 169.697955 32.0103117 169.43017 32.5228952 169.296277 33.0896306 169.306179 33.66298L169.306179 40 167.650389 40 167.650389 33.6588463C167.659861 33.0888039 167.536301 32.5241353 167.28875 32.006178 167.067031 31.546093 166.711419 31.1571082 166.264536 30.8867618 165.803877 30.6114548 165.27089 30.4680141 164.728431 30.4738014 164.161433 30.4671874 163.603475 30.6102147 163.115263 30.8867618 162.652451 31.1533879 162.279187 31.5419592 162.039386 32.006178 161.778489 32.5204149 161.64718 33.086737 161.656651 33.6588463L161.656651 40 160 40 160 29.4325128zM182.655812 30.8092637C182.117625 31.0756208 181.661465 31.4717621 181.334201 31.9585526 180.989778 32.4736961 180.765465 33.0539313 180.677162 33.6585259L187.966946 33.6585259C187.895801 33.0559279 187.693249 32.4744947 187.3731 31.9505659 187.079316 31.4709634 186.654542 31.0764195 186.143977 30.8092637 185.618346 30.5361179 185.027429 30.3987463 184.42898 30.410327 183.809605 30.399545 183.196927 30.5365172 182.647023 30.8092637L182.655812 30.8092637zM187.18938 29.6759482C187.979082 30.1419732 188.613522 30.8116597 189.021138 31.6075363 189.465999 32.4776894 189.697846 33.4329011 189.698683 34.4012909L189.698683 34.6964002C189.697846 34.8006269 189.69115 34.9040549 189.677758 35.0074829L180.665025 35.0074829C180.718593 35.680364 180.948766 36.3296843 181.334201 36.8955434 181.712103 37.437043 182.230619 37.8755139 182.839531 38.1682272 184.208014 38.8059668 185.815039 38.7716239 187.151715 38.0767793 187.771927 37.7613039 188.277888 37.274114 188.60306 36.679902L190 37.226593C189.598662 38.0759806 188.917351 38.7768153 188.059433 39.2220749 186.133096 40.2375863 183.79998 40.2603485 181.852717 39.281576 180.975968 38.8135542 180.25197 38.1231023 179.761492 37.2864934 179.248835 36.4027628 178.986437 35.4068189 179.000666 34.3968982 178.9856 33.4325018 179.226236 32.4800854 179.699136 31.6275031 180.148601 30.8240391 180.823217 30.1551513 181.648073 29.695915 182.505153 29.2266952 183.478993 28.9870936 184.466644 29.0014697 185.422489 28.9791069 186.36578 29.2123191 187.18938 29.6759482L187.18938 29.6759482zM193 29.4187266L194.502303 29.4187266 194.657357 30.9700727C195.036809 30.3537562 195.588544 29.8520936 196.250109 29.5222049 196.919857 29.1774153 197.667993 28.9981909 198.42819 29.0010883 199.272374 28.9828761 200.104498 29.1935579 200.829807 29.6091266 201.512907 30.006897 202.067226 30.5801666 202.430742 31.263951 202.818808 32.0077528 203.013487 32.8310258 202.999274 33.6625772L202.999274 39.9913078 201.320381 39.9913078 201.320381 33.6712693C201.329426 33.0996554 201.202799 32.5338363 200.950405 32.0164449 200.715239 31.5441701 200.343109 31.1476414 199.878377 30.8748727 199.385649 30.592584 198.820563 30.4493701 198.247293 30.4613736 197.6232 30.4580623 197.010305 30.6136936 196.469769 30.9121249 195.93397 31.211384 195.489482 31.6389562 195.178081 32.1530363 194.847729 32.6886397 194.678031 33.3008172 194.687507 33.9233424L194.687507 40 193.030149 40 193 29.4187266z" class="color000 svgShape"></path><g transform="translate(202 25)" fill="#ffffff" class="color000 svgShape"><mask id="d" fill="#fff"><use xlink:href="#c"></use></mask><path fill="#ffffff" d="M4.6833875,15.3441333 C4.1361375,15.0596889 3.68192917,14.6316889 3.37392917,14.1094667 C3.0595125,13.5548 2.9013875,12.9294667 2.91559583,12.2974667 L2.91559583,5.39924444 L0.3411375,5.39924444 L0.3411375,3.98235556 L2.91559583,3.98235556 L2.91559583,0.6068 L4.67880417,0.2028 L4.67880417,3.98235556 L9.91434583,3.98235556 L9.91434583,5.39924444 L4.67422083,5.39924444 L4.67422083,12.1014667 C4.64855417,12.6814667 4.8511375,13.2481333 5.24255417,13.6872444 C5.62617917,14.1045778 6.18259583,14.3330222 6.7582625,14.3094667 C7.36234583,14.3090222 7.94305417,14.0868 8.38442917,13.6872444 C8.87897083,13.2521333 9.19384583,12.6565778 9.26855417,12.0130222 L10.7068042,12.5992444 C10.5738875,13.5223556 10.0678875,14.3561333 9.3006375,14.9179111 C8.53017917,15.5023556 7.5763875,15.8161333 6.59830417,15.8059111 C5.93005417,15.8116889 5.27097083,15.6525778 4.6833875,15.3441333" mask="url(#d)" class="color000 svgShape"></path></g><mask id="f" fill="#fff"><use xlink:href="#e"></use></mask><polygon fill="#ffffff" points="78 64 80 64 80 49 78 49" mask="url(#f)" class="color000 svgShape"></polygon><path fill="#ffffff" d="M82 53.4193166L83.5049256 53.4193166 83.659819 54.9724596C84.0386391 54.3566724 84.5900425 53.8560863 85.2510362 53.5270586 85.9223848 53.178969 86.6739847 52.9978794 87.4372339 53.0007802 88.2781456 52.9854477 89.1074079 53.1963734 89.8301001 53.6099371 90.5143925 54.0081683 91.069679 54.5821019 91.434261 55.2662639 91.8217103 56.0100984 92.0154349 56.8326675 91.9990395 57.6639389L91.9990395 64 90.3219622 64 90.3219622 57.6639389C90.3310228 57.0916628 90.2024484 56.5247739 89.9465938 56.0076121 89.7144693 55.5343759 89.3425525 55.1369735 88.8770093 54.8643032 88.382127 54.5825163 87.8147597 54.4387221 87.2387632 54.4503251 86.6157379 54.4465956 86.0030675 54.6007496 85.4624506 54.8974546 84.9274426 55.1983035 84.4817465 55.626371 84.1689395 56.1398033 83.8384426 56.6760272 83.6684482 57.2897424 83.6770773 57.9125743L83.6770773 63.9958561 82 63.9958561 82 53.4193166zM96.7421569 63.5219905C96.021339 63.2489348 95.3802248 62.8254199 94.8706435 62.2848811 94.3976476 61.7757875 94.0953832 61.1532525 94 60.4909133L95.6541791 60.1884027C95.6959909 60.6441589 95.888935 61.0768287 96.2068788 61.4294924 96.5535683 61.8132033 97.0039162 62.1077532 97.5126263 62.2848811 98.07665 62.4922601 98.6807434 62.5949545 99.2887566 62.5869937 99.8244702 62.5933624 100.357135 62.5153465 100.864103 62.3565284 101.282657 62.2263692 101.660705 62.0050588 101.965583 61.7121011 102.224293 61.464122 102.370199 61.1357387 102.374554 60.793424 102.385007 60.4614584 102.223422 60.1446182 101.93945 59.9380353 101.614973 59.7012013 101.239538 59.5292479 100.837971 59.4329221 100.402867 59.3214708 99.8327454 59.2020587 99.1406731 59.0830447 98.3436358 58.957662 97.5561803 58.7888929 96.7813555 58.5775334 96.2007813 58.4135408 95.6737784 58.1197871 95.2491274 57.7225428 94.8101035 57.2723592 94.5844941 56.6812693 94.622386 56.0794323 94.616724 55.5170013 94.8057481 54.9669096 95.162455 54.5079691 95.5391967 54.0267383 96.0483424 53.6442215 96.6376274 53.3982326 97.299212 53.125973 98.0187233 52.9898432 98.7443321 53.0005903 99.4621013 52.9914354 100.173773 53.1148279 100.837971 53.362807 101.437273 53.5849135 101.9756 53.9264321 102.413753 54.3606941 102.824902 54.7651031 103.11018 55.2622555 103.240842 55.8012021L101.634572 56.1988444C101.556175 55.6543252 101.220374 55.168716 100.716455 54.8701858 100.129348 54.5063769 99.431178 54.3224823 98.7225552 54.3451706 98.2939843 54.3407921 97.8693332 54.4207982 97.4777832 54.5796163 97.1267383 54.714552 96.8196829 54.9298918 96.5857982 55.2045396 96.3688995 55.4529168 96.2517394 55.7617961 96.2547882 56.0794323 96.2382377 56.4046313 96.401565 56.7155008 96.6898922 56.9069582 96.9229058 57.0793096 97.1864072 57.2138473 97.4690724 57.3046005 97.6911975 57.3563457 98.3832699 57.4793402 99.5409339 57.6664191 100.31663 57.7993646 101.080131 57.9844533 101.82621 58.2196952 102.413317 58.4095604 102.944675 58.7200319 103.379779 59.1264311 103.800075 59.5467617 104.0222 60.1012318 103.998246 60.6700315 104.003036 61.2842077 103.785702 61.8828604 103.379779 62.37245 102.94032 62.8978632 102.358439 63.3090389 101.691193 63.5657749 100.92987 63.8643052 100.108006 64.0119781 99.2800458 63.9992409 98.406789 64.0036193 97.542243 63.8408208 96.7421569 63.5219905M108.193491 64.5557614C107.660241 64.281463 107.220287 63.8653156 106.925363 63.3560263 106.62469 62.8219561 106.472144 62.2216613 106.483198 61.6136758L106.483198 54.9954785 104 54.9954785 104 53.6338133 106.483198 53.6338133 106.483198 50.3930756 108.184648 50 108.184648 53.6338133 113.222232 53.6338133 113.222232 54.9954785 108.180226 54.9954785 108.180226 61.4432006C108.156792 61.9999153 108.352229 62.5446669 108.728069 62.9672232 109.101256 63.3671349 109.63937 63.5850355 110.195172 63.5611092 110.775734 63.5628182 111.335073 63.3504719 111.759109 62.9672232 112.236204 62.5463759 112.538645 61.9729982 112.612045 61.3534768L114 61.9170277C113.871772 62.8044386 113.38318 63.6059711 112.642996 64.1460228 111.901044 64.7100009 110.980898 65.0112165 110.035992 64.9996806 109.392642 65.0073712 108.757694 64.8544135 108.193491 64.5557614M115.452595 52.63534L117.473674 52.63534 117.473674 64 115.473604 64 115.452595 52.63534zM115.416355 50.1515019C115.134307 49.9083196 114.983566 49.5771115 115.001424 49.2361228 114.988293 48.9044702 115.138509 48.5830427 115.416355 48.3478628 115.703654 48.1117937 116.092323 47.9868682 116.492022 48.0010946 116.893296 47.9930923 117.281965 48.1189069 117.573467 48.3523085 117.85604 48.5852656 118.009932 48.9071376 117.998902 49.2410131 118.014659 49.582891 117.860242 49.9149882 117.573467 50.1563922 117.278814 50.3902384 116.885943 50.5147193 116.481517 50.5027158 116.084445 50.5138301 115.699978 50.3866818 115.416355 50.1515019L115.416355 50.1515019zM122.193491 64.5719224C121.660241 64.2973194 121.220287 63.8807099 120.925363 63.3708551 120.624248 62.836192 120.472144 62.2352307 120.48364 61.6265702L120.48364 55.0010249 118 55.0010249 118 53.6378478 120.48364 53.6378478 120.48364 50.3935121 122.184648 50 122.184648 53.6378478 127.248762 53.6378478 127.248762 55.0010249 122.180226 55.0010249 122.180226 61.4559057C122.156792 62.0132386 122.352229 62.5585949 122.728069 62.9816204 123.101256 63.3819761 123.63937 63.6001187 124.195172 63.5761658 124.775734 63.5778767 125.335073 63.3652946 125.759109 62.9816204 126.235762 62.5603059 126.538645 61.9862915 126.612045 61.3660823L128 61.9131496C127.87133 62.8002627 127.384949 63.6022573 126.647418 64.1446196 125.903254 64.7087961 124.982225 65.0103461 124.035992 64.9992251 123.394411 65.012057 122.759462 64.8653455 122.193491 64.5719224M131.177659 64.4034875C130.48744 64.0098487 129.928609 63.4357404 129.566427 62.7490457 129.17745 61.9977793 128.983393 61.167454 129.001113 60.3288503L129.001113 54 130.663777 54 130.663777 60.3288503C130.652972 60.9013029 130.783495 61.4683745 131.043678 61.983706 131.289166 62.4522644 131.663881 62.8471449 132.128061 63.1252998 132.622927 63.4104913 133.192131 63.5537079 133.769115 63.5388067 134.386725 63.5417042 134.993962 63.3860699 135.526862 63.0880469 136.064083 62.789196 136.510543 62.3612018 136.823022 61.8471121 137.154949 61.3119124 137.325667 60.6993095 137.315295 60.0767725L137.315295 54 139 54 139 64.5814734 137.492495 64.5814734 137.315295 63.0305119C136.945766 63.6505654 136.394282 64.1534793 135.729995 64.4779932 135.065275 64.8178223 134.324056 64.9966361 133.570736 64.9991196 132.730977 65.0152625 131.902887 64.8091299 131.177659 64.4034875M144.189327 64.5719698C143.65831 64.2960828 143.220144 63.8794719 142.925675 63.3708987 142.624574 62.8362339 142.472476 62.2352706 142.483972 61.6266081L142.483972 55.0010412 140 55.0010412 140 53.6378597 142.483972 53.6378597 142.483972 50.3935133 144.184463 50 144.184463 53.6378597 149.239952 53.6378597 149.239952 55.0010412 144.180042 55.0010412 144.180042 61.4559431C144.15705 62.0132777 144.352478 62.5586359 144.728302 62.9816627 145.101472 63.3820197 145.639121 63.600163 146.19534 63.57621 146.775434 63.57621 147.334306 63.364055 147.759208 62.9816627 148.235398 62.5603468 148.53871 61.9863306 148.612106 61.3661194L150 61.9131884C149.871336 62.8015876 149.383207 63.6040126 148.643056 64.1446657 147.901136 64.7092718 146.98059 65.0108228 146.036167 64.999274 145.392846 65.0116782 144.757041 64.8649662 144.189327 64.5719698M154.622408 54.8245319C154.09176 55.0956944 153.643974 55.4930534 153.321735 55.9778712 152.976479 56.4914427 152.752586 57.0701091 152.665121 57.6743343L159.950227 57.6743343C159.88285 57.0705084 159.6803 56.4882478 159.356806 55.9658905 159.061769 55.4878617 158.639092 55.094097 158.131462 54.8245319 157.604162 54.5517719 157.011996 54.4143936 156.412297 54.4255755 155.794603 54.415991 155.183605 54.55297 154.634962 54.8245319L154.622408 54.8245319zM159.15593 53.6911604C159.947716 54.154413 160.582987 54.8249312 160.987668 55.622844 161.435873 56.491842 161.668973 57.4475002 161.669391 58.4163372L161.669391 58.7114611C161.668973 58.8156929 161.660603 58.9199248 161.644282 59.0229585L152.656752 59.0229585C152.71534 59.6910807 152.94844 60.3344427 153.33429 60.8947388 153.710933 61.4374632 154.230281 61.8763551 154.840023 62.1678848 156.206399 62.8052565 157.812152 62.7709119 159.14756 62.076033 159.767346 61.7621394 160.273303 61.2765229 160.598471 60.6834796L162 61.2258047C161.597411 62.0748349 160.916106 62.7753049 160.059035 63.2213852 158.133136 64.2361481 155.801299 64.2605088 153.852801 63.2856815 152.975642 62.8176366 152.25207 62.1267512 151.761598 61.2897016 151.248945 60.4051287 150.986551 59.4079375 151.000779 58.3963694 150.984458 57.431526 151.224673 56.4790626 151.699242 55.6268375 152.147447 54.8233338 152.822474 54.1556111 153.64774 53.6991475 154.503975 53.2267097 155.478223 52.9854988 156.466701 53.0006743 157.412911 52.9874956 158.344474 53.2267097 159.15593 53.6911604L159.15593 53.6911604zM165.926356 64.5743287C166.194027 64.4216873 166.415359 64.1992669 166.569092 63.9315993 166.88092 63.355923 166.88092 62.6608594 166.569092 62.0851831 166.41754 61.8131543 166.195662 61.5869179 165.926356 61.4310056 165.646147 61.2750933 165.331049 61.1944114 165.010498 61.1971371 164.685042 61.1900502 164.363401 61.2707321 164.079376 61.4310056 163.805709 61.5809213 163.580561 61.8060674 163.431189 62.0797317 163.272004 62.3637538 163.191321 62.685391 163.196773 63.0113895 163.191866 63.333572 163.273094 63.6508481 163.431189 63.9315993 163.583287 64.2019926 163.80789 64.4249582 164.079376 64.5748738 164.365037 64.730241 164.686132 64.8092875 165.010498 64.8032908 165.330504 64.8081972 165.646147 64.7291507 165.926356 64.5743287M163.970346 64.7438697C163.671602 64.575419 163.424647 64.3290121 163.25674 64.0297259 163.0812 63.7179013 162.99234 63.3635551 163.000518 63.0053929 162.995066 62.6450501 163.085562 62.2901588 163.262191 61.9756084 163.433369 61.6790479 163.679234 61.4331862 163.975797 61.2625549 164.289806 61.085927 164.6447 60.9954324 165.005592 61.0003387 165.363758 60.993797 165.717017 61.0821109 166.02939 61.2565583 166.327589 61.4282799 166.573999 61.6768673 166.743541 61.9756084 166.91581 62.2912491 167.004125 62.6461404 166.999763 63.0053929 167.005215 63.3635551 166.916355 63.716811 166.743541 64.0297259 166.575089 64.3290121 166.328679 64.575419 166.02939 64.7438697 165.717017 64.918317 165.363758 65.006631 165.005592 64.9995441 164.64361 65.0071762 164.286535 64.9188622 163.970346 64.7438697" mask="url(#f)" class="color000 svgShape"></path><path fill="#ffffff" d="M164.400814,62.8900718 L164.400814,62.2333572 L164.982548,62.2333572 C165.133799,62.2278457 165.283304,62.2592188 165.406632,62.3223889 C165.513089,62.3779277 165.574753,62.4686552 165.569517,62.5636223 C165.576498,62.6573176 165.517161,62.7467732 165.412449,62.8010401 C165.292612,62.8637863 165.147179,62.8951593 165,62.8900718 L164.400814,62.8900718 Z M166,63.9660832 L165.336824,63.1190104 C165.411867,63.1079874 165.484002,63.0893332 165.552065,63.0638955 C165.82199,62.9723201 165.991274,62.7726348 165.982548,62.5555671 C165.984293,62.4555124 165.948226,62.3571536 165.877836,62.2715137 C165.805119,62.1854497 165.700407,62.1163442 165.575916,62.0722523 C165.438627,62.022225 165.286213,61.9976353 165.133799,62.000179 L164,62.000179 L164,63.978802 L164.400814,63.978802 L164.400814,63.1529272 L164.906923,63.1529272 L165.552065,64 L166,63.9660832 Z" mask="url(#f)" class="color000 svgShape"></path></g></svg></g></svg>