<?xml version="1.0" encoding="UTF-8"?>
<svg viewBox="0 0 213 65" version="1.1" xmlns="http://www.w3.org/2000/svg" xmlns:xlink="http://www.w3.org/1999/xlink">
    <defs>
        <polygon id="path-1" points="0.3174 0.363 8.78657436 0.363 8.78657436 21.8156924 0.3174 21.8156924"></polygon>
        <polygon id="path-3" points="0.3411375 0.2028 10.7066667 0.2028 10.7066667 15.8061532 0.3411375 15.8061532"></polygon>
        <polygon id="path-5" points="0 65 213 65 213 1 0 1"></polygon>
    </defs>
    <g id="logo/pmi" stroke="none" stroke-width="1" fill="none" fill-rule="evenodd">
        <g id="Logo">
            <path d="M22.4927602,49.0021293 C22.490205,44.8606592 25.8460621,41.5014905 29.9876498,41.4989354 L30,41.4989354 L30,34 L0,34 L0,41.4989354 C4.14158764,41.4989354 7.49872239,44.8564006 7.49872239,48.9978707 L7.49872239,49.0021293 C7.49872239,53.1435994 4.14158764,56.5006388 0,56.5006388 L0,64 L30,64 L30,56.5006388 C25.8584124,56.5057491 22.4974448,53.1521165 22.4927602,49.0106465 L22.4927602,49.0021293 Z" id="Fill-1" fill="#05BFE0"></path>
            <path d="M47.0002129,16.9957419 C46.9976581,8.71289068 40.2827337,2 32,2 L32,32 C40.2827337,32 46.9976581,25.2871093 47.0002129,17.0042581 C47.0023419,25.2871093 53.7172663,32 62,32 L62,2 C53.7172663,2 47.0023419,8.71289068 47.0002129,16.9957419" id="Fill-3" fill="#FF610F"></path>
            <path d="M19.6742079,17.0002129 L5.63925868,17.0002129 L5.63925868,7.63849265 L19.6742079,7.63849265 C22.2578574,7.63849265 24.3525243,9.73429849 24.3525243,12.3193528 C24.3525243,14.9044071 22.2578574,17.0002129 19.6742079,17.0002129 L19.6742079,17.0002129 Z M20.6100414,2.04683841 C20.2993736,2.01745795 19.9887058,2 19.6742079,2 L0,2 L0,32 L5.61798006,32 L5.61798006,22.6382798 L19.6742079,22.6382798 C19.9887058,22.6382798 20.2993736,22.6382798 20.6100414,22.5914413 C26.2765367,22.0881414 30.4620404,17.0832446 29.9590139,11.4136683 C29.5172698,6.44198425 25.5790237,2.50117096 20.6100414,2.05961252 L20.6100414,2.04683841 Z" id="Fill-5" fill="#231F20"></path>
            <polygon id="Fill-7" fill="#4F17A8" points="32 64 32 55 41 64"></polygon>
            <polygon id="Fill-9" fill="#4F17A8" points="49.6211678 64 33 47.3759432 33 39 58 64"></polygon>
            <polygon id="Fill-11" fill="#4F17A8" points="63 34 63 43 54 34"></polygon>
            <polygon id="Fill-13" fill="#4F17A8" points="62 59 37 34 45.4052905 34 62 50.5934531"></polygon>
            <path d="M65.7159458,62 L66.146331,62 L66.8642135,63.6152202 L67.5696148,62 L68,62 L68,64 L67.6858188,64 L67.6858188,62.4360838 L66.9976329,64 L66.7010975,64 L66.0172154,62.4360838 L66.0172154,64 L65.6987304,64 L65.7159458,62 Z M64.597805,62.2821719 L64,62.2821719 L64,62 L65.5097913,62 L65.5097913,62.2821719 L64.9158597,62.2821719 L64.9158597,63.9910218 L64.597805,63.9910218 L64.597805,62.2821719 Z" id="Fill-15" fill="#000000"></path>
            <path d="M84.4967627,8.73382984 C85.0114248,8.74182163 85.5218545,8.63393253 85.9941924,8.41904229 C86.4102392,8.22723944 86.7695715,7.92266361 87.0349442,7.53594999 C87.2816942,7.17232375 87.4120527,6.73543948 87.4069738,6.28923145 C87.4154386,5.83503164 87.288466,5.38971159 87.043409,5.01542964 C86.7818455,4.63448786 86.4267456,4.33523989 86.0153545,4.15054085 C85.5362447,3.93343068 85.0186199,3.82598556 84.4967627,3.83530931 L81.5611571,3.83530931 L81.5611571,8.71607032 L84.4967627,8.73382984 Z M78.0042324,1.0000007 L85.0931105,1.0000007 C86.0695295,0.999557415 87.0357906,1.20956378 87.9313704,1.61670085 C88.8104438,2.00474644 89.5765116,2.62899368 90.1521205,3.42728426 C90.7315386,4.26153787 91.0290777,5.27471868 90.9977578,6.30699098 C91.0091853,7.26866917 90.7438126,8.21214385 90.2367689,9.01309835 C89.710256,9.83403232 88.9784708,10.4866948 88.1218293,10.8991597 C87.1598005,11.3697871 86.1080445,11.6046568 85.0465539,11.5868973 L81.5573479,11.5868973 L81.5573479,17.0000007 L78,17.0000007 L78.0042324,1.0000007 Z" id="Fill-17" fill="#000000"></path>
            <path d="M93,5.33393461 L95.6184012,5.33393461 L96.1221719,7.04493383 C96.3811679,6.424249 96.8319328,5.89329182 97.4141349,5.52326817 C97.9941823,5.1709431 98.6694678,4.98942983 99.3563887,5.00054289 C99.9834087,4.98942983 100.600517,5.14912858 101.135316,5.46152897 C101.664081,5.78257284 102.09847,6.22709513 102.397113,6.75311318 C102.736695,7.34457478 102.942254,7.99777559 103,8.66990976 L100.22646,9.3980208 C100.216979,8.87035638 100.009265,8.36368329 99.6408102,7.97061034 C99.3167421,7.61087656 98.8457229,7.40260963 98.3488472,7.39890528 C97.9631545,7.39520093 97.5882353,7.52032572 97.2895928,7.75246514 C96.9569058,8.01300459 96.7039431,8.35380502 96.556992,8.73988086 C96.3790131,9.1959278 96.291532,9.68037478 96.298858,10.1672913 L96.298858,16 L93.0043094,16 L93,5.33393461 Z" id="Fill-19" fill="#000000"></path>
            <path d="M111.492015,13.0368138 C111.922989,12.7911465 112.273182,12.4344297 112.503451,12.0070087 C112.748295,11.5404407 112.871133,11.0239403 112.86114,10.5018475 C112.871133,9.97855632 112.748295,9.46085757 112.503451,8.99269172 C112.271516,8.56567014 111.92174,8.20775495 111.492015,7.95889205 C111.051046,7.70923022 110.547202,7.57940608 110.035445,7.58380013 C109.523273,7.57780824 109.019428,7.70763239 108.579293,7.95889205 C108.153315,8.20735549 107.807702,8.56367284 107.580348,8.98909659 C107.332589,9.45606406 107.208086,9.97416227 107.218079,10.4978529 C107.207669,11.0207446 107.332173,11.5376445 107.580348,12.0030141 C107.805204,12.4296362 108.152066,12.7867525 108.579293,13.0328192 C109.020677,13.2872745 109.528686,13.4174981 110.043773,13.4083106 C110.553031,13.413903 111.053545,13.2856767 111.492015,13.0368138 L111.492015,13.0368138 Z M106.914523,15.3121317 C106.031754,14.8759226 105.296807,14.2072284 104.796294,13.384343 C104.26455,12.5103269 103.989309,11.5140764 104.001385,10.5018475 C103.978483,9.49321374 104.239982,8.49736266 104.758818,7.61975143 C105.269325,6.79047472 106.017596,6.1197832 106.914523,5.68756866 C108.885347,4.77081045 111.185544,4.77081045 113.156368,5.68756866 C114.026645,6.12976968 114.748267,6.79966228 115.237121,7.61975143 C115.757622,8.4969632 116.020787,9.49281428 115.998718,10.5018475 C116.020787,11.5108807 115.757622,12.5071312 115.237121,13.384343 C114.737857,14.2080273 114.002493,14.877121 113.118891,15.3121317 C111.148068,16.2292894 108.847871,16.2292894 106.877047,15.3121317 L106.914523,15.3121317 Z" id="Fill-21" fill="#000000"></path>
            <g id="Group-25" transform="translate(112.000000, 0.000000)">
                <mask id="mask-2" fill="white">
                    <use xlink:href="#path-1"></use>
                </mask>
                <g id="Clip-24"></g>
                <path d="M5.4444,3.60004615 C5.07325714,3.24381538 4.87268571,2.74923846 4.89197143,2.23858462 C4.86754286,1.73131538 5.06382857,1.23758462 5.43154286,0.881353846 C6.23725714,0.190046154 7.43554286,0.190046154 8.24082857,0.881353846 C8.60468571,1.23335385 8.80225714,1.71946923 8.78511429,2.22166154 C8.80568571,2.73062308 8.60811429,3.22477692 8.24082857,3.58312308 C7.43554286,4.27443077 6.23725714,4.27443077 5.43154286,3.58312308 L5.4444,3.60004615 Z M1.85511429,21.3578538 C1.23968571,21.0900462 0.708685714,20.6635846 0.3174,20.1233154 L1.76982857,18.2418923 C1.94597143,18.5892385 2.21554286,18.8815846 2.54897143,19.0872 C2.8614,19.2805462 3.2214,19.3846231 3.58997143,19.3875846 C4.20325714,19.4015462 4.76297143,19.0444692 5.0034,18.4868538 C5.13582857,18.1830846 5.20182857,17.8543538 5.19582857,17.5230846 L5.19582857,5.58300769 L8.45125714,5.58300769 L8.45125714,18.0049692 C8.4804,19.4252385 7.65968571,20.7295846 6.35682857,21.3324692 C5.64968571,21.6645846 4.87397143,21.8295846 4.09097143,21.8147769 C3.32082857,21.8257769 2.55754286,21.6696615 1.85511429,21.3578538 L1.85511429,21.3578538 Z" id="Fill-23" fill="#000000" mask="url(#mask-2)"></path>
            </g>
            <path d="M126.761378,7.56107089 C126.390828,7.74622512 126.08175,8.02236031 125.867673,8.35875044 C125.628664,8.72586658 125.467032,9.13208858 125.390945,9.55507023 L130.438507,9.55507023 C130.391221,9.1352809 130.254092,8.72826082 130.034427,8.35875044 C129.61831,7.66921054 128.828635,7.24622889 127.977057,7.25820007 C127.550624,7.26099335 127.131928,7.3651426 126.761378,7.56107089 M131.057093,5.72269688 C131.912539,6.16563049 132.609363,6.83282419 133.059009,7.64087875 C133.545625,8.52514982 133.789363,9.50718552 133.767869,10.5 L133.767869,10.974852 C133.76357,11.1081312 133.752393,11.2410112 133.733909,11.3734923 L125.390945,11.3734923 C125.453706,11.8399692 125.656176,12.2805086 125.975142,12.6456295 C126.304854,13.0147409 126.728708,13.3028473 127.208016,13.482814 C127.728161,13.6819346 128.286566,13.7808963 128.848839,13.7741127 C129.507403,13.7741127 130.15737,13.6380403 130.751884,13.3754724 C131.27117,13.1707653 131.717377,12.8351732 132.040641,12.406206 L134,13.6982952 C133.512095,14.4532775 132.770995,15.0386682 131.890616,15.3654814 C130.836139,15.798439 129.692678,16.0147183 128.53976,15.9991557 C127.377385,16.0163144 126.227047,15.7717034 125.188905,15.2852745 C124.232009,14.8295716 123.426858,14.1404307 122.860716,13.2916742 C122.283397,12.4293502 121.985066,11.431353 122.001401,10.416197 C121.978188,9.42937285 122.243849,8.45491891 122.770443,7.59698443 C123.281991,6.78813179 124.02567,6.12692368 124.918085,5.68678334 C125.872402,5.21990737 126.937196,4.98407515 128.015746,5.0008348 C129.08011,4.99045978 130.128569,5.2394603 131.057093,5.72269688" id="Fill-26" fill="#000000"></path>
            <path d="M137.979356,15.3107899 C137.066902,14.8611177 136.308803,14.1800142 135.79186,13.3454226 C135.259951,12.4824517 134.9863,11.5015667 135.000838,10.5054928 C134.983307,9.51061799 135.241138,8.52813418 135.748674,7.65317199 C136.22457,6.83496842 136.936918,6.15826171 137.804476,5.70019562 C138.717358,5.22254381 139.749535,4.9815195 140.795395,5.00110523 C141.634733,4.99630872 142.465948,5.15139567 143.239439,5.45637336 C143.97402,5.7409659 144.632065,6.17345064 145.166967,6.7226503 C145.677497,7.24706802 146.028539,7.8897995 146.183323,8.58409339 L143.192405,9.29117796 C143.073965,8.783548 142.772094,8.32947899 142.337674,8.00491558 C141.920356,7.68394955 141.395716,7.50847746 140.855256,7.50967659 C140.384063,7.50328125 139.922277,7.63438568 139.53489,7.88500299 C139.12869,8.15240807 138.810143,8.52053972 138.616022,8.94782824 C138.383419,9.43787102 138.2684,9.9694835 138.278234,10.5054928 C138.269683,11.0458988 138.399667,11.5803093 138.65878,12.0631573 C138.889245,12.4992394 139.244136,12.8669714 139.684116,13.1259826 C140.534144,13.5916431 141.57872,13.6216213 142.457824,13.2055246 C142.853334,13.0148636 143.197108,12.7418626 143.46178,12.4069067 C143.730728,12.0671544 143.90518,11.6706434 143.970172,11.2525482 L147,11.6518571 C146.891395,12.4720592 146.543773,13.2486931 145.995616,13.8966208 C145.432921,14.5609365 144.709029,15.0905505 143.885084,15.4426938 C141.99732,16.2321183 139.82992,16.1805559 137.988336,15.3027958 L137.979356,15.3107899 Z" id="Fill-28" fill="#000000"></path>
            <path d="M151.274702,16.515597 C150.629455,16.2095656 150.097183,15.725825 149.748437,15.1276919 C149.386742,14.4679304 149.208574,13.7317666 149.2309,12.9892711 L149.2309,8.15481913 L147,8.15481913 L147,5.71669861 L149.2309,5.71669861 L149.2309,2.70450539 L152.640659,2 L152.61342,5.71669861 L157.316798,5.71669861 L157.316798,8.15481913 L152.61342,8.15481913 L152.636194,12.4911786 C152.610295,13.0010902 152.78891,13.5008711 153.135869,13.8917471 C153.464967,14.2366128 153.93919,14.4248749 154.429488,14.406302 C154.926037,14.4130558 155.410977,14.2644722 155.808841,13.9846118 C156.229926,13.6794246 156.569294,13.2851718 156.799261,12.8330895 L158,14.7355495 C157.588739,15.4311906 156.991719,16.0128613 156.268775,16.4227323 C155.490907,16.823739 154.614354,17.0221318 153.729317,16.996805 C152.882236,17.0255087 152.040067,16.8604628 151.274702,16.515597" id="Fill-30" fill="#000000"></path>
            <polygon id="Fill-32" fill="#000000" points="78 25 80.6986806 25 86.5002221 38.0635806 92.3013194 25 95 25 95 40 93.135885 40 93.135885 27.5538712 87.485356 40 85.5102025 40 79.864115 27.5748872 79.864115 40 78 40"></polygon>
            <path d="M103.321695,38.1522577 C103.870216,37.8795271 104.332237,37.4670469 104.657333,36.9586133 C104.987347,36.4398279 105.159119,35.841015 105.15297,35.2318502 L105.15297,34.4996581 L101.916365,34.8974069 C100.724212,35.0447212 99.8678128,35.2951556 99.3639765,35.6415434 C98.908925,35.9047185 98.6211356,36.3729392 98.5977681,36.8869469 C98.6039175,37.404936 98.9031856,37.8775363 99.3762752,38.1164245 C99.9932595,38.4504697 100.694285,38.6117192 101.40023,38.5818582 C102.066819,38.5926082 102.726848,38.4448957 103.321695,38.1522577 M98.9831271,39.6042994 C98.4046787,39.3773557 97.9012523,39.0003106 97.528602,38.5141732 C97.1789093,38.0535173 96.993609,37.4949172 97.0001683,36.9227801 C96.994019,36.3789114 97.1645608,35.8469872 97.4876064,35.4030534 C97.885264,34.897805 98.4079584,34.4996581 99.0077245,34.2452422 C99.8674029,33.8817341 100.781605,33.6559848 101.715896,33.5763555 L104.288372,33.274162 C104.522867,33.2618194 104.746703,33.1734308 104.923394,33.0233294 C105.078768,32.8875613 105.165678,32.6928675 105.161169,32.4902107 C105.169778,32.0872861 105.023834,31.6959077 104.751213,31.3921216 C104.445795,31.0616597 104.062076,30.8092346 103.632852,30.655948 C103.144594,30.4771801 102.626409,30.3879952 102.104945,30.3931711 C101.513787,30.38481 100.92837,30.5058466 100.392147,30.7475218 C99.9243868,30.95416 99.5132006,31.2651128 99.1917949,31.6545004 C98.9122046,31.975805 98.7420728,32.3735537 98.7043568,32.7924042 L97.2703295,32.2075265 C97.3576502,31.6226487 97.6212522,31.0755948 98.0283388,30.6360407 C98.5022483,30.108496 99.0991447,29.699201 99.7694233,29.4423963 C100.530302,29.1421935 101.345295,28.991694 102.166438,29.0008514 C102.980611,28.9869162 103.788635,29.1441843 104.534346,29.4623036 C105.189046,29.7433953 105.749456,30.1968847 106.152443,30.7714106 C106.543952,31.3523069 106.74688,32.0343326 106.734581,32.7290989 L106.734581,37.9014252 C106.721463,38.082582 106.777217,38.2621462 106.889955,38.4070717 C106.989164,38.5269139 107.140848,38.594997 107.299501,38.5902193 C107.460204,38.5818582 107.613528,38.5249232 107.737744,38.4265809 C107.901727,38.3055442 108.040702,38.155841 108.147701,37.985036 L109,38.9521348 C108.768375,39.283393 108.448199,39.5477625 108.074319,39.7161787 C107.704128,39.8981318 107.296222,39.9948815 106.882166,39.9984648 C105.959764,40.0370851 105.179617,39.3423188 105.139851,38.4464882 C105.137391,38.3935347 105.137801,38.3405812 105.140671,38.2876276 L105.140671,37.8894807 C104.892238,38.3170905 104.564273,38.6961263 104.173994,39.0074772 C103.765678,39.3343558 103.297098,39.5812069 102.792851,39.736086 C102.24392,39.9064929 101.669981,39.9912982 101.092762,39.9861223 C100.370009,39.9996593 99.6521758,39.8694652 98.9831271,39.6042994" id="Fill-34" fill="#000000"></path>
            <path d="M110,29.4185511 L111.508553,29.4185511 L111.659495,30.969923 C112.039436,30.3535962 112.591882,29.8519253 113.2543,29.5220311 C113.924912,29.1776497 114.674445,28.9984224 115.43519,29.0009059 C116.275719,28.9843491 117.105035,29.1950344 117.826536,29.6089543 C118.510948,30.0067313 119.065981,30.5800104 119.429966,31.2638061 C119.818533,32.0076202 120.013894,32.8309069 119.999232,33.6624721 L119.999232,39.9913077 L118.318174,39.9913077 L118.318174,33.6711644 C118.32723,33.099541 118.200439,32.5337124 117.94772,32.0163125 C117.714408,31.5444438 117.34266,31.1479085 116.878623,30.8747214 C116.383534,30.5932558 115.815994,30.4500396 115.240691,30.4612154 C113.272413,30.4516952 111.668982,31.9757484 111.659495,33.8652928 L111.659495,33.9195163 L111.659495,40 L110,40 L110,29.4185511 Z" id="Fill-36" fill="#000000"></path>
            <path d="M128.315254,38.1493464 C128.864425,37.8758949 129.327533,37.4635285 129.654987,36.9560312 C129.977113,36.4365929 130.141454,35.8395373 130.129979,35.2337249 L130.129979,34.4977543 L126.893964,34.8953933 C125.706688,35.0410749 124.856292,35.289052 124.342775,35.6393246 C123.887045,35.9020291 123.599344,36.3701207 123.576394,36.8843846 C123.580902,37.4026288 123.880897,37.8758949 124.35507,38.113523 C124.971864,38.4474761 125.672672,38.6086811 126.377989,38.5788284 C127.050519,38.5923616 127.715673,38.4446899 128.315254,38.1493464 M123.982125,39.6009875 C123.403036,39.3760966 122.899355,38.9987575 122.52846,38.5111621 C122.178875,38.0506332 121.993222,37.4921872 122.000189,36.9202079 C121.994042,36.3764893 122.164531,35.8447118 122.487067,35.4009004 C122.88747,34.891811 123.41656,34.4929779 124.023108,34.2434086 C124.882521,33.8796028 125.796441,33.6539157 126.730442,33.5747064 L129.302533,33.2725962 C129.536136,33.2606551 129.758264,33.1722909 129.933261,33.0218329 C130.085308,32.8920728 130.173421,32.7053934 130.17465,32.5087631 C130.184077,32.1059496 130.037767,31.7146791 129.765231,31.4109769 C129.458268,31.0806061 129.073438,30.8278526 128.643117,30.6750063 C128.156649,30.4958897 127.639854,30.4067293 127.119371,30.4126999 C126.528806,30.4035451 125.94357,30.5245483 125.407513,30.7665549 C124.938667,30.9675636 124.52351,31.2708678 124.195237,31.6533814 C123.919011,31.9765875 123.748932,32.3730325 123.707949,32.7909714 L122.278463,32.2062549 C122.363708,31.6211404 122.627638,31.0738395 123.036238,30.6352026 C123.509592,30.1078035 124.106304,29.6986214 124.776785,29.4418875 C125.537019,29.1405734 126.35176,28.9905135 127.172649,29.0004644 C127.980423,28.9909115 128.78041,29.1497283 129.519333,29.4657697 C130.180798,29.7447937 130.748412,30.1981579 131.157832,30.7745156 C131.549219,31.3556497 131.752085,32.0374872 131.73938,32.7316639 L131.73938,37.9025634 C131.727495,38.0832722 131.781183,38.2619909 131.891017,38.4076724 C131.991425,38.5266855 132.142242,38.5939538 132.300846,38.5907695 C132.46068,38.5824107 132.613956,38.5250934 132.738954,38.4275743 C132.902066,38.306571 133.040999,38.1569091 133.148374,37.9861512 L134,38.9529832 C133.766807,39.2825579 133.44714,39.5460584 133.074605,39.7168163 C132.704938,39.8987193 132.297158,39.9954423 131.88282,39.9986266 C130.955786,40.035246 130.17465,39.3350988 130.137356,38.435137 C130.135307,38.3861784 130.135307,38.3376179 130.137766,38.2886593 L130.137766,37.8910203 C129.892688,38.3189102 129.566054,38.6982395 129.175486,39.0083104 C128.767296,39.3343027 128.29886,39.5810857 127.79518,39.7363202 C127.246008,39.9070781 126.672247,39.9914619 126.095616,39.9870835 C125.371448,39.9990246 124.652197,39.8680704 123.982125,39.6009875" id="Fill-38" fill="#000000"></path>
            <path d="M142.498082,38.7256658 C143.101805,38.35437 143.593385,37.8169911 143.917591,37.1743972 C144.262455,36.4861521 144.434887,35.7200828 144.419288,34.9457527 C144.429828,34.147945 144.253602,33.3592675 143.905365,32.6471099 C143.585796,31.9888642 143.093795,31.436703 142.485434,31.052364 C141.879181,30.6706337 141.181442,30.4719426 140.471055,30.4788989 C139.008544,30.4541169 137.662392,31.2993148 137.012293,32.6514577 C136.665743,33.3623109 136.490781,34.1496841 136.502585,34.9457527 C136.489938,35.7209523 136.669958,36.4865869 137.024941,37.1700494 C137.353363,37.8104695 137.844099,38.3465441 138.444872,38.7208833 C139.694478,39.4682575 141.235828,39.4682575 142.485434,38.7208833 L142.498082,38.7256658 Z M137.44232,45.5602913 C136.669958,45.2916018 135.954512,44.872481 135.335612,44.3264066 C134.766459,43.8255486 134.310715,43.2029542 134,42.501666 L135.364702,41.532123 C135.54135,42.1138488 135.857124,42.6399237 136.283356,43.0620879 C136.743737,43.5212077 137.291389,43.8768517 137.893004,44.1046726 C138.551113,44.3607537 139.249696,44.4890116 139.953337,44.48249 C140.756475,44.4985766 141.549916,44.3011898 142.257773,43.9090249 C142.909558,43.545555 143.447091,42.9986111 143.807976,42.3316699 C144.181087,41.6338598 144.369962,40.8473562 144.356049,40.0508528 L144.356049,38.5604522 C143.913375,39.2543493 143.311338,39.8243362 142.603481,40.2204141 C141.881711,40.6177962 141.074357,40.8195307 140.256464,40.8064875 C139.28511,40.8199655 138.328512,40.5569281 137.492489,40.046505 C136.679234,39.5434731 136.015222,38.820881 135.571283,37.9561183 C135.101627,37.0278788 134.864269,35.9926852 134.880711,34.9457527 C134.868063,33.8888205 135.105421,32.8453663 135.571283,31.9040835 C136.465907,30.0919513 138.285087,28.9645859 140.256885,29.0015416 C141.911222,28.9589339 143.470279,29.801958 144.377129,31.2306208 L144.545345,29.3837067 L145.999425,29.3837067 L145.999425,40.0552005 C146.014181,41.1330018 145.744782,42.1947165 145.219896,43.126869 C144.716091,44.0242396 143.977457,44.755962 143.087471,45.2385596 C142.134246,45.7572433 141.068876,46.0185416 139.991281,45.9989769 C139.123639,46.0011507 138.2619,45.853328 137.44232,45.5602913 L137.44232,45.5602913 Z" id="Fill-40" fill="#000000"></path>
            <path d="M151.627166,30.8187283 C151.095158,31.0868057 150.645544,31.4825391 150.323076,31.9668337 C149.97886,32.4814467 149.754681,33.0610843 149.666849,33.6650564 L156.951851,33.6650564 C156.880749,33.0630789 156.678319,32.4822445 156.358779,31.9588552 C156.064752,31.4797466 155.640233,31.085609 155.129555,30.8187283 C154.604239,30.5458638 154.013676,30.4086337 153.416003,30.4202025 C152.794072,30.4078358 152.178832,30.5450659 151.627166,30.8187283 M156.174751,29.6865799 C156.963562,30.152125 157.598041,30.8211219 158.005412,31.6161789 C158.454189,32.4838402 158.685898,33.439265 158.682552,34.4070564 L158.682552,34.7018618 C158.681297,34.8059812 158.674605,34.9093027 158.661639,35.0126242 L149.662667,35.0126242 C149.718712,35.6856102 149.951256,36.3342619 150.339806,36.8987404 C150.718319,37.4384856 151.236525,37.8769039 151.844654,38.1701136 C153.211481,38.8071964 154.817544,38.7728889 156.153839,38.0787598 C156.773679,37.7636093 157.279338,37.2769211 157.604314,36.683321 L159,37.229449 C158.599739,38.0771641 157.92009,38.7768781 157.064778,39.222876 C155.138338,40.2373416 152.805782,40.2600803 150.858013,39.2823158 C149.980115,38.8167706 149.25655,38.1262319 148.768039,37.2892877 C147.768014,35.5264393 147.743338,33.4077499 148.70112,31.6241574 C149.150734,30.8211219 149.824946,30.1533218 150.64889,29.6945584 C151.505457,29.2258218 152.478714,28.9864669 153.465774,29.0008282 C154.418538,28.9840734 155.356662,29.2218325 156.174751,29.6865799" id="Fill-42" fill="#000000"></path>
            <path d="M160,29.4325128 L161.437085,29.4325128 L161.613599,30.7503484 C161.941658,30.2108957 162.415663,29.7669322 162.986106,29.4655827 C163.568172,29.1621664 164.221275,29.0071512 164.883419,29.0154187 C165.719925,28.9992971 166.544807,29.2051573 167.267224,29.6102636 C167.937548,29.9839535 168.467952,30.5523424 168.781372,31.2335824 C169.126652,30.5692907 169.659208,30.0112361 170.317477,29.6226648 C172.335768,28.418507 174.988649,29.0137652 176.242762,30.9516615 C176.310784,31.0566584 176.37321,31.164549 176.431331,31.2753331 C176.818801,32.0181658 177.014259,32.8403662 176.99919,33.6708341 L176.99919,39.9913192 L175.321443,39.9913192 L175.321443,33.6588463 C175.331776,33.0879771 175.204772,32.5224818 174.951624,32.006178 C174.722586,31.5411325 174.36353,31.1463605 173.914064,30.8660931 C173.462877,30.5891327 172.935917,30.445692 172.399916,30.4531327 C171.837223,30.448999 171.284431,30.5920263 170.799232,30.8660931 C170.323935,31.1364395 169.941631,31.5341051 169.697955,32.0103117 C169.43017,32.5228952 169.296277,33.0896306 169.306179,33.66298 L169.306179,40 L167.650389,40 L167.650389,33.6588463 C167.659861,33.0888039 167.536301,32.5241353 167.28875,32.006178 C167.067031,31.546093 166.711419,31.1571082 166.264536,30.8867618 C165.803877,30.6114548 165.27089,30.4680141 164.728431,30.4738014 C164.161433,30.4671874 163.603475,30.6102147 163.115263,30.8867618 C162.652451,31.1533879 162.279187,31.5419592 162.039386,32.006178 C161.778489,32.5204149 161.64718,33.086737 161.656651,33.6588463 L161.656651,40 L160,40 L160,29.4325128 Z" id="Fill-44" fill="#000000"></path>
            <path d="M182.655812,30.8092637 C182.117625,31.0756208 181.661465,31.4717621 181.334201,31.9585526 C180.989778,32.4736961 180.765465,33.0539313 180.677162,33.6585259 L187.966946,33.6585259 C187.895801,33.0559279 187.693249,32.4744947 187.3731,31.9505659 C187.079316,31.4709634 186.654542,31.0764195 186.143977,30.8092637 C185.618346,30.5361179 185.027429,30.3987463 184.42898,30.410327 C183.809605,30.399545 183.196927,30.5365172 182.647023,30.8092637 L182.655812,30.8092637 Z M187.18938,29.6759482 C187.979082,30.1419732 188.613522,30.8116597 189.021138,31.6075363 C189.465999,32.4776894 189.697846,33.4329011 189.698683,34.4012909 L189.698683,34.6964002 C189.697846,34.8006269 189.69115,34.9040549 189.677758,35.0074829 L180.665025,35.0074829 C180.718593,35.680364 180.948766,36.3296843 181.334201,36.8955434 C181.712103,37.437043 182.230619,37.8755139 182.839531,38.1682272 C184.208014,38.8059668 185.815039,38.7716239 187.151715,38.0767793 C187.771927,37.7613039 188.277888,37.274114 188.60306,36.679902 L190,37.226593 C189.598662,38.0759806 188.917351,38.7768153 188.059433,39.2220749 C186.133096,40.2375863 183.79998,40.2603485 181.852717,39.281576 C180.975968,38.8135542 180.25197,38.1231023 179.761492,37.2864934 C179.248835,36.4027628 178.986437,35.4068189 179.000666,34.3968982 C178.9856,33.4325018 179.226236,32.4800854 179.699136,31.6275031 C180.148601,30.8240391 180.823217,30.1551513 181.648073,29.695915 C182.505153,29.2266952 183.478993,28.9870936 184.466644,29.0014697 C185.422489,28.9791069 186.36578,29.2123191 187.18938,29.6759482 L187.18938,29.6759482 Z" id="Fill-46" fill="#000000"></path>
            <path d="M193,29.4187266 L194.502303,29.4187266 L194.657357,30.9700727 C195.036809,30.3537562 195.588544,29.8520936 196.250109,29.5222049 C196.919857,29.1774153 197.667993,28.9981909 198.42819,29.0010883 C199.272374,28.9828761 200.104498,29.1935579 200.829807,29.6091266 C201.512907,30.006897 202.067226,30.5801666 202.430742,31.263951 C202.818808,32.0077528 203.013487,32.8310258 202.999274,33.6625772 L202.999274,39.9913078 L201.320381,39.9913078 L201.320381,33.6712693 C201.329426,33.0996554 201.202799,32.5338363 200.950405,32.0164449 C200.715239,31.5441701 200.343109,31.1476414 199.878377,30.8748727 C199.385649,30.592584 198.820563,30.4493701 198.247293,30.4613736 C197.6232,30.4580623 197.010305,30.6136936 196.469769,30.9121249 C195.93397,31.211384 195.489482,31.6389562 195.178081,32.1530363 C194.847729,32.6886397 194.678031,33.3008172 194.687507,33.9233424 L194.687507,40 L193.030149,40 L193,29.4187266 Z" id="Fill-48" fill="#000000"></path>
            <g id="Group-52" transform="translate(202.000000, 25.000000)">
                <mask id="mask-4" fill="white">
                    <use xlink:href="#path-3"></use>
                </mask>
                <g id="Clip-51"></g>
                <path d="M4.6833875,15.3441333 C4.1361375,15.0596889 3.68192917,14.6316889 3.37392917,14.1094667 C3.0595125,13.5548 2.9013875,12.9294667 2.91559583,12.2974667 L2.91559583,5.39924444 L0.3411375,5.39924444 L0.3411375,3.98235556 L2.91559583,3.98235556 L2.91559583,0.6068 L4.67880417,0.2028 L4.67880417,3.98235556 L9.91434583,3.98235556 L9.91434583,5.39924444 L4.67422083,5.39924444 L4.67422083,12.1014667 C4.64855417,12.6814667 4.8511375,13.2481333 5.24255417,13.6872444 C5.62617917,14.1045778 6.18259583,14.3330222 6.7582625,14.3094667 C7.36234583,14.3090222 7.94305417,14.0868 8.38442917,13.6872444 C8.87897083,13.2521333 9.19384583,12.6565778 9.26855417,12.0130222 L10.7068042,12.5992444 C10.5738875,13.5223556 10.0678875,14.3561333 9.3006375,14.9179111 C8.53017917,15.5023556 7.5763875,15.8161333 6.59830417,15.8059111 C5.93005417,15.8116889 5.27097083,15.6525778 4.6833875,15.3441333" id="Fill-50" fill="#000000" mask="url(#mask-4)"></path>
            </g>
            <mask id="mask-6" fill="white">
                <use xlink:href="#path-5"></use>
            </mask>
            <g id="Clip-54"></g>
            <polygon id="Fill-53" fill="#000000" mask="url(#mask-6)" points="78 64 80 64 80 49 78 49"></polygon>
            <path d="M82,53.4193166 L83.5049256,53.4193166 L83.659819,54.9724596 C84.0386391,54.3566724 84.5900425,53.8560863 85.2510362,53.5270586 C85.9223848,53.178969 86.6739847,52.9978794 87.4372339,53.0007802 C88.2781456,52.9854477 89.1074079,53.1963734 89.8301001,53.6099371 C90.5143925,54.0081683 91.069679,54.5821019 91.434261,55.2662639 C91.8217103,56.0100984 92.0154349,56.8326675 91.9990395,57.6639389 L91.9990395,64 L90.3219622,64 L90.3219622,57.6639389 C90.3310228,57.0916628 90.2024484,56.5247739 89.9465938,56.0076121 C89.7144693,55.5343759 89.3425525,55.1369735 88.8770093,54.8643032 C88.382127,54.5825163 87.8147597,54.4387221 87.2387632,54.4503251 C86.6157379,54.4465956 86.0030675,54.6007496 85.4624506,54.8974546 C84.9274426,55.1983035 84.4817465,55.626371 84.1689395,56.1398033 C83.8384426,56.6760272 83.6684482,57.2897424 83.6770773,57.9125743 L83.6770773,63.9958561 L82,63.9958561 L82,53.4193166 Z" id="Fill-55" fill="#000000" mask="url(#mask-6)"></path>
            <path d="M96.7421569,63.5219905 C96.021339,63.2489348 95.3802248,62.8254199 94.8706435,62.2848811 C94.3976476,61.7757875 94.0953832,61.1532525 94,60.4909133 L95.6541791,60.1884027 C95.6959909,60.6441589 95.888935,61.0768287 96.2068788,61.4294924 C96.5535683,61.8132033 97.0039162,62.1077532 97.5126263,62.2848811 C98.07665,62.4922601 98.6807434,62.5949545 99.2887566,62.5869937 C99.8244702,62.5933624 100.357135,62.5153465 100.864103,62.3565284 C101.282657,62.2263692 101.660705,62.0050588 101.965583,61.7121011 C102.224293,61.464122 102.370199,61.1357387 102.374554,60.793424 C102.385007,60.4614584 102.223422,60.1446182 101.93945,59.9380353 C101.614973,59.7012013 101.239538,59.5292479 100.837971,59.4329221 C100.402867,59.3214708 99.8327454,59.2020587 99.1406731,59.0830447 C98.3436358,58.957662 97.5561803,58.7888929 96.7813555,58.5775334 C96.2007813,58.4135408 95.6737784,58.1197871 95.2491274,57.7225428 C94.8101035,57.2723592 94.5844941,56.6812693 94.622386,56.0794323 C94.616724,55.5170013 94.8057481,54.9669096 95.162455,54.5079691 C95.5391967,54.0267383 96.0483424,53.6442215 96.6376274,53.3982326 C97.299212,53.125973 98.0187233,52.9898432 98.7443321,53.0005903 C99.4621013,52.9914354 100.173773,53.1148279 100.837971,53.362807 C101.437273,53.5849135 101.9756,53.9264321 102.413753,54.3606941 C102.824902,54.7651031 103.11018,55.2622555 103.240842,55.8012021 L101.634572,56.1988444 C101.556175,55.6543252 101.220374,55.168716 100.716455,54.8701858 C100.129348,54.5063769 99.431178,54.3224823 98.7225552,54.3451706 C98.2939843,54.3407921 97.8693332,54.4207982 97.4777832,54.5796163 C97.1267383,54.714552 96.8196829,54.9298918 96.5857982,55.2045396 C96.3688995,55.4529168 96.2517394,55.7617961 96.2547882,56.0794323 C96.2382377,56.4046313 96.401565,56.7155008 96.6898922,56.9069582 C96.9229058,57.0793096 97.1864072,57.2138473 97.4690724,57.3046005 C97.6911975,57.3563457 98.3832699,57.4793402 99.5409339,57.6664191 C100.31663,57.7993646 101.080131,57.9844533 101.82621,58.2196952 C102.413317,58.4095604 102.944675,58.7200319 103.379779,59.1264311 C103.800075,59.5467617 104.0222,60.1012318 103.998246,60.6700315 C104.003036,61.2842077 103.785702,61.8828604 103.379779,62.37245 C102.94032,62.8978632 102.358439,63.3090389 101.691193,63.5657749 C100.92987,63.8643052 100.108006,64.0119781 99.2800458,63.9992409 C98.406789,64.0036193 97.542243,63.8408208 96.7421569,63.5219905" id="Fill-56" fill="#000000" mask="url(#mask-6)"></path>
            <path d="M108.193491,64.5557614 C107.660241,64.281463 107.220287,63.8653156 106.925363,63.3560263 C106.62469,62.8219561 106.472144,62.2216613 106.483198,61.6136758 L106.483198,54.9954785 L104,54.9954785 L104,53.6338133 L106.483198,53.6338133 L106.483198,50.3930756 L108.184648,50 L108.184648,53.6338133 L113.222232,53.6338133 L113.222232,54.9954785 L108.180226,54.9954785 L108.180226,61.4432006 C108.156792,61.9999153 108.352229,62.5446669 108.728069,62.9672232 C109.101256,63.3671349 109.63937,63.5850355 110.195172,63.5611092 C110.775734,63.5628182 111.335073,63.3504719 111.759109,62.9672232 C112.236204,62.5463759 112.538645,61.9729982 112.612045,61.3534768 L114,61.9170277 C113.871772,62.8044386 113.38318,63.6059711 112.642996,64.1460228 C111.901044,64.7100009 110.980898,65.0112165 110.035992,64.9996806 C109.392642,65.0073712 108.757694,64.8544135 108.193491,64.5557614" id="Fill-57" fill="#000000" mask="url(#mask-6)"></path>
            <path d="M115.452595,52.63534 L117.473674,52.63534 L117.473674,64 L115.473604,64 L115.452595,52.63534 Z M115.416355,50.1515019 C115.134307,49.9083196 114.983566,49.5771115 115.001424,49.2361228 C114.988293,48.9044702 115.138509,48.5830427 115.416355,48.3478628 C115.703654,48.1117937 116.092323,47.9868682 116.492022,48.0010946 C116.893296,47.9930923 117.281965,48.1189069 117.573467,48.3523085 C117.85604,48.5852656 118.009932,48.9071376 117.998902,49.2410131 C118.014659,49.582891 117.860242,49.9149882 117.573467,50.1563922 C117.278814,50.3902384 116.885943,50.5147193 116.481517,50.5027158 C116.084445,50.5138301 115.699978,50.3866818 115.416355,50.1515019 L115.416355,50.1515019 Z" id="Fill-58" fill="#000000" mask="url(#mask-6)"></path>
            <path d="M122.193491,64.5719224 C121.660241,64.2973194 121.220287,63.8807099 120.925363,63.3708551 C120.624248,62.836192 120.472144,62.2352307 120.48364,61.6265702 L120.48364,55.0010249 L118,55.0010249 L118,53.6378478 L120.48364,53.6378478 L120.48364,50.3935121 L122.184648,50 L122.184648,53.6378478 L127.248762,53.6378478 L127.248762,55.0010249 L122.180226,55.0010249 L122.180226,61.4559057 C122.156792,62.0132386 122.352229,62.5585949 122.728069,62.9816204 C123.101256,63.3819761 123.63937,63.6001187 124.195172,63.5761658 C124.775734,63.5778767 125.335073,63.3652946 125.759109,62.9816204 C126.235762,62.5603059 126.538645,61.9862915 126.612045,61.3660823 L128,61.9131496 C127.87133,62.8002627 127.384949,63.6022573 126.647418,64.1446196 C125.903254,64.7087961 124.982225,65.0103461 124.035992,64.9992251 C123.394411,65.012057 122.759462,64.8653455 122.193491,64.5719224" id="Fill-59" fill="#000000" mask="url(#mask-6)"></path>
            <path d="M131.177659,64.4034875 C130.48744,64.0098487 129.928609,63.4357404 129.566427,62.7490457 C129.17745,61.9977793 128.983393,61.167454 129.001113,60.3288503 L129.001113,54 L130.663777,54 L130.663777,60.3288503 C130.652972,60.9013029 130.783495,61.4683745 131.043678,61.983706 C131.289166,62.4522644 131.663881,62.8471449 132.128061,63.1252998 C132.622927,63.4104913 133.192131,63.5537079 133.769115,63.5388067 C134.386725,63.5417042 134.993962,63.3860699 135.526862,63.0880469 C136.064083,62.789196 136.510543,62.3612018 136.823022,61.8471121 C137.154949,61.3119124 137.325667,60.6993095 137.315295,60.0767725 L137.315295,54 L139,54 L139,64.5814734 L137.492495,64.5814734 L137.315295,63.0305119 C136.945766,63.6505654 136.394282,64.1534793 135.729995,64.4779932 C135.065275,64.8178223 134.324056,64.9966361 133.570736,64.9991196 C132.730977,65.0152625 131.902887,64.8091299 131.177659,64.4034875" id="Fill-60" fill="#000000" mask="url(#mask-6)"></path>
            <path d="M144.189327,64.5719698 C143.65831,64.2960828 143.220144,63.8794719 142.925675,63.3708987 C142.624574,62.8362339 142.472476,62.2352706 142.483972,61.6266081 L142.483972,55.0010412 L140,55.0010412 L140,53.6378597 L142.483972,53.6378597 L142.483972,50.3935133 L144.184463,50 L144.184463,53.6378597 L149.239952,53.6378597 L149.239952,55.0010412 L144.180042,55.0010412 L144.180042,61.4559431 C144.15705,62.0132777 144.352478,62.5586359 144.728302,62.9816627 C145.101472,63.3820197 145.639121,63.600163 146.19534,63.57621 C146.775434,63.57621 147.334306,63.364055 147.759208,62.9816627 C148.235398,62.5603468 148.53871,61.9863306 148.612106,61.3661194 L150,61.9131884 C149.871336,62.8015876 149.383207,63.6040126 148.643056,64.1446657 C147.901136,64.7092718 146.98059,65.0108228 146.036167,64.999274 C145.392846,65.0116782 144.757041,64.8649662 144.189327,64.5719698" id="Fill-61" fill="#000000" mask="url(#mask-6)"></path>
            <path d="M154.622408,54.8245319 C154.09176,55.0956944 153.643974,55.4930534 153.321735,55.9778712 C152.976479,56.4914427 152.752586,57.0701091 152.665121,57.6743343 L159.950227,57.6743343 C159.88285,57.0705084 159.6803,56.4882478 159.356806,55.9658905 C159.061769,55.4878617 158.639092,55.094097 158.131462,54.8245319 C157.604162,54.5517719 157.011996,54.4143936 156.412297,54.4255755 C155.794603,54.415991 155.183605,54.55297 154.634962,54.8245319 L154.622408,54.8245319 Z M159.15593,53.6911604 C159.947716,54.154413 160.582987,54.8249312 160.987668,55.622844 C161.435873,56.491842 161.668973,57.4475002 161.669391,58.4163372 L161.669391,58.7114611 C161.668973,58.8156929 161.660603,58.9199248 161.644282,59.0229585 L152.656752,59.0229585 C152.71534,59.6910807 152.94844,60.3344427 153.33429,60.8947388 C153.710933,61.4374632 154.230281,61.8763551 154.840023,62.1678848 C156.206399,62.8052565 157.812152,62.7709119 159.14756,62.076033 C159.767346,61.7621394 160.273303,61.2765229 160.598471,60.6834796 L162,61.2258047 C161.597411,62.0748349 160.916106,62.7753049 160.059035,63.2213852 C158.133136,64.2361481 155.801299,64.2605088 153.852801,63.2856815 C152.975642,62.8176366 152.25207,62.1267512 151.761598,61.2897016 C151.248945,60.4051287 150.986551,59.4079375 151.000779,58.3963694 C150.984458,57.431526 151.224673,56.4790626 151.699242,55.6268375 C152.147447,54.8233338 152.822474,54.1556111 153.64774,53.6991475 C154.503975,53.2267097 155.478223,52.9854988 156.466701,53.0006743 C157.412911,52.9874956 158.344474,53.2267097 159.15593,53.6911604 L159.15593,53.6911604 Z" id="Fill-62" fill="#000000" mask="url(#mask-6)"></path>
            <path d="M165.926356,64.5743287 C166.194027,64.4216873 166.415359,64.1992669 166.569092,63.9315993 C166.88092,63.355923 166.88092,62.6608594 166.569092,62.0851831 C166.41754,61.8131543 166.195662,61.5869179 165.926356,61.4310056 C165.646147,61.2750933 165.331049,61.1944114 165.010498,61.1971371 C164.685042,61.1900502 164.363401,61.2707321 164.079376,61.4310056 C163.805709,61.5809213 163.580561,61.8060674 163.431189,62.0797317 C163.272004,62.3637538 163.191321,62.685391 163.196773,63.0113895 C163.191866,63.333572 163.273094,63.6508481 163.431189,63.9315993 C163.583287,64.2019926 163.80789,64.4249582 164.079376,64.5748738 C164.365037,64.730241 164.686132,64.8092875 165.010498,64.8032908 C165.330504,64.8081972 165.646147,64.7291507 165.926356,64.5743287 M163.970346,64.7438697 C163.671602,64.575419 163.424647,64.3290121 163.25674,64.0297259 C163.0812,63.7179013 162.99234,63.3635551 163.000518,63.0053929 C162.995066,62.6450501 163.085562,62.2901588 163.262191,61.9756084 C163.433369,61.6790479 163.679234,61.4331862 163.975797,61.2625549 C164.289806,61.085927 164.6447,60.9954324 165.005592,61.0003387 C165.363758,60.993797 165.717017,61.0821109 166.02939,61.2565583 C166.327589,61.4282799 166.573999,61.6768673 166.743541,61.9756084 C166.91581,62.2912491 167.004125,62.6461404 166.999763,63.0053929 C167.005215,63.3635551 166.916355,63.716811 166.743541,64.0297259 C166.575089,64.3290121 166.328679,64.575419 166.02939,64.7438697 C165.717017,64.918317 165.363758,65.006631 165.005592,64.9995441 C164.64361,65.0071762 164.286535,64.9188622 163.970346,64.7438697" id="Fill-63" fill="#000000" mask="url(#mask-6)"></path>
            <path d="M164.400814,62.8900718 L164.400814,62.2333572 L164.982548,62.2333572 C165.133799,62.2278457 165.283304,62.2592188 165.406632,62.3223889 C165.513089,62.3779277 165.574753,62.4686552 165.569517,62.5636223 C165.576498,62.6573176 165.517161,62.7467732 165.412449,62.8010401 C165.292612,62.8637863 165.147179,62.8951593 165,62.8900718 L164.400814,62.8900718 Z M166,63.9660832 L165.336824,63.1190104 C165.411867,63.1079874 165.484002,63.0893332 165.552065,63.0638955 C165.82199,62.9723201 165.991274,62.7726348 165.982548,62.5555671 C165.984293,62.4555124 165.948226,62.3571536 165.877836,62.2715137 C165.805119,62.1854497 165.700407,62.1163442 165.575916,62.0722523 C165.438627,62.022225 165.286213,61.9976353 165.133799,62.000179 L164,62.000179 L164,63.978802 L164.400814,63.978802 L164.400814,63.1529272 L164.906923,63.1529272 L165.552065,64 L166,63.9660832 Z" id="Fill-64" fill="#000000" mask="url(#mask-6)"></path>
        </g>
    </g>
</svg>